<?xml version="1.0" encoding="utf-8"?>
<!-- Generator: Adobe Illustrator 28.2.0, SVG Export Plug-In . SVG Version: 6.00 Build 0)  -->
<svg version="1.1" id="Layer_1" xmlns="http://www.w3.org/2000/svg" xmlns:xlink="http://www.w3.org/1999/xlink" x="0px" y="0px"
	 viewBox="0 0 500 500" style="enable-background:new 0 0 500 500;" xml:space="preserve">
<style type="text/css">
	.st0{fill:#C9A24D;}
	.st1{fill:#FFFFFF;}
	.st2{fill:#F7F6F2;}
	.st3{fill:#0F2F24;}
	.st4{fill:#3A5F52;}
</style>
<path class="st0" d="M321.5,500h-143C79.9,500,0,420.1,0,321.5v-143C0,79.9,79.9,0,178.5,0h143C420.1,0,500,79.9,500,178.5v143
	C500,420.1,420.1,500,321.5,500z"/>
<g>
	<g id="Layer_2_00000076593740529758450680000006005954611038321304_">
		<g id="Layer_1-2_00000011749127253986437260000007135226073086323336_">
			<path d="M968,263.5c0.5-4.4,0.7-8.8,0.7-13.3c0-4.1-0.2-8.3-0.6-12.4c0.2-10.9-6.3-20.8-16.4-25.1c-1.8-0.7-3.7-1.2-5.6-1.5
				c-2.7-0.5-4-0.3-5.6-1.2c-1.3-0.9-2.3-2.2-2.8-3.7c-3.2-38.5-28.3-71.5-63.9-84.4c-34.9-12.7-72.6-3.2-97.3,18.6
				c-12.7,11.4-22.2,25.9-27.5,42.1c1.7-3.9,20.2-44.8,66-54.3c4.5-0.9,43.8-8.4,76.5,18.9c22,18.4,28.5,42.1,30.3,50.3l-2.2-0.9
				H915L895.2,180c-5.8-5.2-13.4-8-21.2-7.8l-83.2-1c-9,0.8-17.6,4.4-24.6,10.1l-19.7,20c-1.7,0.6-3.4,1.4-4.9,2.4
				c-0.6,0.4-1.2,0.8-1.7,1.3c-2.5,4.9-3.3,10.6-2.2,16l13.3,25.8c0.7,1.2,1.5,2.2,2.5,3.2c1.4,1.3,3,2.3,4.8,3.1
				c5.2,2.8,10.5,5.3,16.1,7.4c1.7,0.6,3.3,1.2,5,1.8c2.7,0.7,5.5,1,8.4,0.9c1.8,0,3.6-0.2,5.3-0.6c-1.6-1.2-3.3-2.3-5.1-3.2
				c-3.1-1.7-6.4-3-9.7-3.9c-7.1-2.2-14-4.8-20.8-7.8c-1.5-0.4-2.7-1.4-2.7-2.3c0-1.2,1.7-2.8,4.3-2.7c10.6,0.1,21.1,1.7,31.2,4.6
				c-10.6-5.7-22.7-8.1-34.8-6.8c-1.1-0.2-2.2-0.8-2.9-1.7c-0.8-1.1-1.1-2.6-0.7-3.9c-0.5-8.4-0.9-16.8-1.4-25.2
				c-0.3-0.9-0.1-1.8,0.5-2.5c0.9-0.8,2.3-0.8,3.2-0.1l36.4,12.2c1.6,0.3,3.3,0.3,5,0c1.9-0.3,3.6-1,5.2-2c5.6-4.7,14-3.9,18.7,1.7
				c0.8,1,1.5,2.1,2,3.2c-0.9,0-3.3,0-4.3,1.4c-1.6,2.4,2,6.8,2.4,7.3c4.4,5.5,11.9,6.2,19.4,7c7.9,0.8,16.1-0.1,19.3-1.2
				c0.6-0.2,1.2-0.3,1.9-0.4c2.2-0.2,4.5,0.4,6.4,1.6l5,4.7c1.6,3.5,4.5,6.3,8,7.8c1.9,0.8,3.9,1.2,5.9,1.2
				c11,2.5,22.3,3.5,33.6,2.9c4.7-0.3,9.4-1.2,13.8-2.7c0.5-0.2,11.6-4.1,13.7-9.2c0.1-0.3,0.7-2,1.8-4.7c0.4-1.2,0.8-2.1,1-2.7
				c1.1-0.2,2.1,0.5,2.4,1.5c0,0.6-0.2,1.2-0.7,1.6c-0.6,1.1-1.3,2.2-2,3.4c-2.7,4.3-5.8,8.4-9.1,12.3c-1.3,0.9-2.6,1.6-4.1,2.1
				c-1.7,0.6-3.5,1-5.3,1.1c-3.6,0.2-14.3,0.6-28.7,1c-7.4-0.2-14.7-1.8-21.5-4.8c-4.9-2.1-9.5-5-13.7-8.4c-1.6-0.9-3.4-1.6-5.2-2.1
				c-1.4-0.4-2.9-0.6-4.3-0.8c-2.8-0.2-7.4-0.9-15.5-2.3c-15.5-2.7-20.8-5.2-22.8-7.1c-1.6-1.6-3.4-3.2-5.2-4.6
				c-1.3-1.1-2.5-1.9-3.1-2.3c-2.2-2.7-6-3.7-9.3-2.5c-2.4,1.1-4.1,3.3-4.7,5.8c-3.1,11-4.1,22.5-2.7,33.8c0.1,1.2-0.6,2.4-1.7,2.9
				c-0.3,0.1-0.7,0-1-0.1c-2.8-0.3-5.6-0.7-8.5-1.2c-6.9-1.1-13.5-2.4-19.7-3.8c-0.5,0.1-0.9,0.4-1.2,0.8c-0.5,0.9-0.3,2,0.5,2.7
				c2.3,2.5,5.5,4,8.9,4.4c3.7,0.5,11.3,2,22.2,4.4c0.6,0.2,1.2,0.3,1.8,0.2c1.1-0.3,2-1,2.5-2.1c0.9,10.8,5.8,17.5,9.8,17.4
				c4.2-0.2,7.1-7.9,7.4-8.7c0.9-2.7,1.7-5.4,2.6-8c0.2,0.7,0.3,1.5,0.5,2.2c-0.1,0.5,0,1.1,0.2,1.6c0.8,1.8,3.4,2.8,6.7,2.4
				l74.6,0.3c-10.7,11.4-24.3,19.8-39.3,24.4c-30.6,9.2-56.4-1.2-63.6-4.5c-6.7-4.1-13-8.7-18.9-13.7c-16.2-14-25.1-28.1-30.6-37.1
				c-19.9-32.1-27.9-67.2-31-83.4c-2.9-0.7-6-0.5-8.7,0.8c-1.5,0.7-2.7,1.8-3.7,3.1c-3.3,4-30.4,30.4-69.9,68.4
				c-0.3-0.3-0.7-0.7-1.1-1.1c-0.7-0.8-1.4-1.7-2-2.6v-60.9c0.2-3.2,1.6-29.4-18-45.3c-6.2-5-13.5-8.3-21.3-9.7
				c-8.3-1.2-16.8,0-24.4,3.4c-2.2,1-4.3,2.2-6.3,3.6c-1.3,1.5-1.4,2.1-1.2,2.5c0.8,1.4,7.4-2.5,15.7-2.7c4.2,0.1,8.4,0.9,12.2,2.5
				c10.4,4.3,17.5,20.8,17,40.8v127.1c-0.2,0.8-1.6,7.9,2.6,11.7c2.1,1.9,5,1.9,10.7,2c5.2,0.1,11.1,0.1,13-3.2
				c0.5-1.3,0.8-2.6,0.7-4c0.2-2.5,0.1-5-0.4-7.4c1.2-9,3.4-17.9,6.6-26.5c2.9-7.8,6.5-15.3,10.9-22.3c0.4-0.1,0.8-0.2,1.2-0.2
				c1.3,0.1,2.5,0.9,3,2.1c10.1,13.9,18.2,25.3,23.7,33c11.5,16.2,17.1,24.5,27,36c6,7,11.2,12.4,14.9,16.1
				c3.7,3.7,18,16.3,38.5,16.1c23-0.3,44.5-16.7,53.5-41.3l-0.2-0.1c15.4,5.7,32,7.2,48.2,4.6c31-5.2,49.7-24.6,55.1-30.7
				c1.6-1.7,4-2.3,6.2-1.5c1.9,0.8,3.3,2.4,3.7,4.3c6.1,7.9,16,11.2,24.8,8.5c10.1-3.2,13.8-12.9,14.2-14.1l7.4-4.8
				c0.3-0.7,0.4-1.5,0.5-2.3C970.1,267.5,969.4,265.3,968,263.5z M795.2,208.5c-0.5,0.6-1.2,0.9-4.6,0.9c-1.4,0-3.3,0-5.5-0.2
				l-7.4-2.3h7.6c0.9,0,1.8-0.3,2.4-1c0.2-0.3,0.3-0.6,0.3-1c0.2-0.8,0.2-1.7,0.1-2.5c0.1-1-0.1-2-0.4-3c-0.7-1.6-1.9-3-3.4-3.8
				l-15.5,1.7c-0.8,0.3-1.4,1-1.8,1.7c-0.3,0.8,0,1.3-0.2,2.7c-0.1,0.6-0.2,1.1-0.3,1.6c-1.4,0-2.8-0.1-4.2-0.3
				c-2-0.4-3.9-1-5.7-1.8c-0.8-0.1-1.6-0.6-2.1-1.4c-0.9-1.6,0.2-4.4,3.1-6.4l10.1-9.5c6.9-7.3,15.9-9,20.8-5.5
				c0.8,0.6,3.3,2.6,4.2,7.4c0.4,1.8,0.8,3.7,1.2,5.6c0.9,4.7,1.4,9.4,1.7,14.1C795.8,206.5,795.7,207.6,795.2,208.5z M808.2,204.5
				c-2.1,0.2-4.2-0.6-5.7-2.2c-1.1-1.2-1.6-2.8-1.6-4.4c-0.8-5.8-1.5-11.5-2.3-17.2c-0.3-0.4-0.3-1-0.1-1.5c0.2-0.4,0.7-0.7,1.2-0.8
				l80.9-1.8c1.3-0.1,2.5,0.1,3.7,0.4c1,0.3,2,0.7,2.9,1.2l33.3,25.5L808.2,204.5z M867.7,231.1l7-3.3l21.7,0.1
				c0.4,0.2,0.6,0.5,0.7,0.9c0.2,0.8-0.5,1.9-1.9,2.4L867.7,231.1z M937.7,246c-2.8,1.6-5.8,2.8-9,3.6c-4.8,1.3-9.8,2-14.8,2.1
				c-5.3,0.1-9.8-0.1-13.1-0.4c-11-0.8-14.6-2.4-17.2-3.9c-1.6-1-3-2.1-4.4-3.4l61.1,0.1C939.5,244.9,938.6,245.5,937.7,246
				L937.7,246z M903.7,232.3c0.3,0.3,3.4,3.2,7.4,2.3c1.4-0.3,2.6-1.1,3.6-2.1c0.5-1,1.5-1.7,2.7-1.6c1.1,0.3,2.2,2.2,1.4,4.4
				c-2.1,5.3-8.1,8-13.4,5.9c-2.6-1-4.7-3.1-5.8-5.7c-0.5-0.9-0.5-2,0-2.9C900.6,231.5,902.4,231.4,903.7,232.3L903.7,232.3z
				 M901.2,226.4c4.6-3.6,11.2-3.2,15.4,0.8c-0.7,1.2-1.7,2.3-2.9,3.1c-0.9,0.6-3.4,2.3-5.6,1.6c-1.7-0.5-1.6-1.8-3.6-2.4
				c-1.5-0.4-2.4,0.1-3-0.6C901,228.2,900.9,227.3,901.2,226.4L901.2,226.4z M943.7,231.2l-21.3-0.1c-0.8,0.4-1.7,0.1-2.2-0.5
				c-0.4-0.6-0.3-1.3,0.1-1.9c0.4-0.5,1-0.7,1.6-0.6l21.2,0.1c0.8,0.2,1.4,0.9,1.4,1.7C944.5,230.4,944.2,230.9,943.7,231.2
				L943.7,231.2z M944.5,222.1l-82.5-0.1v-0.9l82.6,0.5L944.5,222.1z M943.6,218.6H855l-29.8-8.2l120.4,6.3L943.6,218.6z
				 M813.8,261.5c-0.8,9.1-2.4,19.7-5.9,20.2c-0.6,0.1-1.3-0.1-2.6-1.2c-6-5.2-6.6-14.5-6.7-17.7c-0.3-2.4-2.6-22.7,4.5-26
				c0.7-0.4,1.5-0.5,2.3-0.4c6.3,0.8,8.4,17.7,8.5,18.8V261.5z M845.4,264.7c-2.2,2.3-2.7,4-5.3,5.3c-2.1,0.9-4.3,1.3-6.6,1.2
				c-2.1,0.1-4.2,0-6.3-0.2c0.2-1.8,0.7-3.5,1.6-5.1c1.1-2.1,2.8-3.9,4.9-5.1c0.8-0.5,1.7-0.9,2.6-1.2c1.3-0.4,2.7-0.5,4.1-0.4
				c2.5,0.2,7.3,0.2,14.1,0.1C850.9,260.3,847.9,262.2,845.4,264.7z M806.7,304.5c-0.5,1.4-8.8,22-30.6,26.6
				c-16.5,3.2-33.2-3.6-42.8-17.4c-2.5-3.4-6-8.2-10.1-14c-13.3-18.6-24.6-34.8-33.4-47.7c-6.2-9-13.7-20-22-32.6
				c1.8-1.9,3.7-3.8,5.8-6c8.4-8.6,19.9-19.5,34.2-31.7c2.6,10.5,6.1,20.8,10.4,30.8c8,17.6,18.3,34,30.5,49
				c4.7,5.7,9.9,11.1,15.3,16.1c3,2.7,6.5,5.6,10.4,8.5c9.6,7.2,20.1,13.2,31.2,17.8L806.7,304.5L806.7,304.5z M891.6,273.7
				c-8.9-0.2-17.9-0.9-26.8-2.1h65.9C917.8,273.3,904.7,274,891.6,273.7z M948.7,267.2h-80.5v-0.5h80.5L948.7,267.2z"/>
		</g>
	</g>
	<g>
		<path d="M630.7,292.9c-0.1-20.1-0.2-40.2-0.3-60.3v0v-60.9c0.2-3.2,1.6-29.4-18-45.3c-6.2-5-13.5-8.3-21.3-9.7
			c-8.3-1.2-16.8,0-24.4,3.4c-2.2,1-4.3,2.2-6.3,3.6c-1.3,1.5-1.4,2.1-1.2,2.5c0.8,1.4,7.4-2.5,15.7-2.7c4.2,0.1,8.4,0.9,12.2,2.5
			c10.4,4.3,17.5,20.8,17,40.8v127.1c-0.2,0.8-1.6,7.9,2.6,11.7c2.1,1.9,5,1.9,10.7,2c5.2,0.1,11.1,0.1,13-3.2
			c0.5-1.3,0.8-2.6,0.7-4C631.3,297.8,631.2,295.3,630.7,292.9C630.7,292.9,630.7,292.9,630.7,292.9z"/>
		<path d="M632,285.2c0-0.1,0.1-0.3,0.1-0.4C632.1,284.9,632.1,285,632,285.2z"/>
		<path d="M631.3,289.3c0.1-0.9,0.3-1.8,0.5-2.7C631.6,287.6,631.4,288.5,631.3,289.3z"/>
		<path d="M813.7,307c-2.7-1-5.4-2-8.1-3c0,0,0,0,0,0c0,0,0,0,0,0l1.3,0.5l-0.1,0c-0.5,1.4-8.8,22-30.6,26.6
			c-16.5,3.2-33.2-3.6-42.8-17.4c-2.5-3.4-6-8.2-10.1-14c-13.3-18.6-24.6-34.8-33.4-47.7c-6.1-8.8-13.4-19.6-21.6-32
			c-7.1,7.6-13.5,15.3-19.2,23.8c0.2,0,0.3,0,0.5,0c1.3,0.1,2.5,0.9,3,2.1c10.1,13.9,18.2,25.3,23.7,33c11.5,16.2,17.1,24.5,27,36
			c6,7,11.2,12.4,14.9,16.1c3.7,3.7,18,16.3,38.5,16.1c23-0.3,44.5-16.7,53.5-41.3l-0.2-0.1C811.1,306.2,812.4,306.6,813.7,307z"/>
		<path d="M630.7,292.8c0.1-1,0.3-2.1,0.5-3.1C631,290.8,630.9,291.9,630.7,292.8z"/>
	</g>
</g>
<g>
	<g id="Layer_2_00000087412497656660725790000008276709675542585507_">
		<g id="Layer_1-2">
			<path class="st1" d="M968.5,260.6c0.5-4.4,0.7-8.8,0.7-13.3c0-4.1-0.2-8.3-0.6-12.4c0.2-10.9-6.3-20.8-16.4-25.1
				c-1.8-0.7-3.7-1.2-5.6-1.5c-2.7-0.5-4-0.3-5.6-1.2c-1.3-0.9-2.3-2.2-2.8-3.7c-3.2-38.5-28.3-71.5-63.9-84.4
				c-34.9-12.7-72.6-3.2-97.3,18.6c-12.7,11.4-22.2,25.9-27.5,42.1c1.7-3.9,20.2-44.8,66-54.3c4.5-0.9,43.8-8.4,76.5,18.9
				c22,18.4,28.5,42.1,30.3,50.3l-2.2-0.9h-4.7l-19.8-16.5c-5.8-5.2-13.4-8-21.2-7.8l-83.2-1c-9,0.8-17.6,4.4-24.6,10.1l-19.7,20
				c-1.7,0.6-3.4,1.4-4.9,2.4c-0.6,0.4-1.2,0.8-1.7,1.3c-2.5,4.9-3.3,10.6-2.2,16l13.3,25.8c0.7,1.2,1.5,2.2,2.5,3.2
				c1.4,1.3,3,2.3,4.8,3.1c5.2,2.8,10.5,5.3,16.1,7.4c1.7,0.6,3.3,1.2,5,1.8c2.7,0.7,5.5,1,8.4,0.9c1.8,0,3.6-0.2,5.3-0.6
				c-1.6-1.2-3.3-2.3-5.1-3.2c-3.1-1.7-6.4-3-9.7-3.9c-7.1-2.2-14-4.8-20.8-7.8c-1.5-0.4-2.7-1.4-2.7-2.3c0-1.2,1.7-2.8,4.3-2.7
				c10.6,0.1,21.1,1.7,31.2,4.6c-10.6-5.7-22.7-8.1-34.8-6.8c-1.1-0.2-2.2-0.8-2.9-1.7c-0.8-1.1-1.1-2.6-0.7-3.9
				c-0.5-8.4-0.9-16.8-1.4-25.2c-0.3-0.9-0.1-1.8,0.5-2.5c0.9-0.8,2.3-0.8,3.2-0.1l36.4,12.2c1.6,0.3,3.3,0.3,5,0
				c1.9-0.3,3.6-1,5.2-2c5.6-4.7,14-3.9,18.7,1.7c0.8,1,1.5,2.1,2,3.2c-0.9,0-3.3,0-4.3,1.4c-1.6,2.4,2,6.8,2.4,7.3
				c4.4,5.5,11.9,6.2,19.4,7c7.9,0.8,16.1-0.1,19.3-1.2c0.6-0.2,1.2-0.3,1.9-0.4c2.2-0.2,4.5,0.4,6.4,1.6l5,4.7
				c1.6,3.5,4.5,6.3,8,7.8c1.9,0.8,3.9,1.2,5.9,1.2c11,2.5,22.3,3.5,33.6,2.9c4.7-0.3,9.4-1.2,13.8-2.7c0.5-0.2,11.6-4.1,13.7-9.2
				c0.1-0.3,0.7-2,1.8-4.7c0.4-1.2,0.8-2.1,1-2.7c1.1-0.2,2.1,0.5,2.4,1.5c0,0.6-0.2,1.2-0.7,1.6c-0.6,1.1-1.3,2.2-2,3.4
				c-2.7,4.3-5.8,8.4-9.1,12.3c-1.3,0.9-2.6,1.6-4.1,2.1c-1.7,0.6-3.5,1-5.3,1.1c-3.6,0.2-14.3,0.6-28.7,1
				c-7.4-0.2-14.7-1.8-21.5-4.8c-4.9-2.1-9.5-5-13.7-8.4c-1.6-0.9-3.4-1.6-5.2-2.1c-1.4-0.4-2.9-0.6-4.3-0.8
				c-2.8-0.2-7.4-0.9-15.5-2.3c-15.5-2.7-20.8-5.2-22.8-7.1c-1.6-1.6-3.4-3.2-5.2-4.6c-1.3-1.1-2.5-1.9-3.1-2.3
				c-2.2-2.7-6-3.7-9.3-2.5c-2.4,1.1-4.1,3.3-4.7,5.8c-3.1,11-4.1,22.5-2.7,33.8c0.1,1.2-0.6,2.4-1.7,2.9c-0.3,0.1-0.7,0-1-0.1
				c-2.8-0.3-5.6-0.7-8.5-1.2c-6.9-1.1-13.5-2.4-19.7-3.8c-0.5,0.1-0.9,0.4-1.2,0.8c-0.5,0.9-0.3,2,0.5,2.7c2.3,2.5,5.5,4,8.9,4.4
				c3.7,0.5,11.3,2,22.2,4.4c0.6,0.2,1.2,0.3,1.8,0.2c1.1-0.3,2-1,2.5-2.1c0.9,10.8,5.8,17.5,9.8,17.4c4.2-0.2,7.1-7.9,7.4-8.7
				c0.9-2.7,1.7-5.4,2.6-8c0.2,0.7,0.3,1.5,0.5,2.2c-0.1,0.5,0,1.1,0.2,1.6c0.8,1.8,3.4,2.8,6.7,2.4l74.6,0.3
				c-10.7,11.4-24.3,19.8-39.3,24.4c-30.6,9.2-56.4-1.2-63.6-4.5c-6.7-4.1-13-8.7-18.9-13.7c-16.2-14-25.1-28.1-30.6-37.1
				c-19.9-32.1-27.9-67.2-31-83.4c-2.9-0.7-6-0.5-8.7,0.8c-1.5,0.7-2.7,1.8-3.7,3.1c-3.3,4-30.4,30.4-69.9,68.4
				c-0.3-0.3-0.7-0.7-1.1-1.1c-0.7-0.8-1.4-1.7-2-2.6v-60.9c0.2-3.2,1.6-29.4-18-45.3c-6.2-5-13.5-8.3-21.3-9.7
				c-8.3-1.2-16.8,0-24.4,3.4c-2.2,1-4.3,2.2-6.3,3.6c-1.3,1.5-1.4,2.1-1.2,2.5c0.8,1.4,7.4-2.5,15.7-2.7c4.2,0.1,8.4,0.9,12.2,2.5
				c10.4,4.3,17.5,20.8,17,40.8v127.1c-0.2,0.8-1.6,7.9,2.6,11.7c2.1,1.9,5,1.9,10.7,2c5.2,0.1,11.1,0.1,13-3.2
				c0.5-1.3,0.8-2.6,0.7-4c0.2-2.5,0.1-5-0.4-7.4c1.2-9,3.4-17.9,6.6-26.5c2.9-7.8,6.5-15.3,10.9-22.3c0.4-0.1,0.8-0.2,1.2-0.2
				c1.3,0.1,2.5,0.9,3,2.1c10.1,13.9,18.2,25.3,23.7,33c11.5,16.2,17.1,24.5,27,36c6,7,11.2,12.4,14.9,16.1s18,16.3,38.5,16.1
				c23-0.3,44.5-16.7,53.5-41.3l-0.2-0.1c15.4,5.7,32,7.2,48.2,4.6c31-5.2,49.7-24.6,55.1-30.7c1.6-1.7,4-2.3,6.2-1.5
				c1.9,0.8,3.3,2.4,3.7,4.3c6.1,7.9,16,11.2,24.8,8.5c10.1-3.2,13.8-12.9,14.2-14.1l7.4-4.8c0.3-0.7,0.4-1.5,0.5-2.3
				C970.5,264.6,969.8,262.4,968.5,260.6z M795.7,205.7c-0.5,0.6-1.2,0.9-4.6,0.9c-1.4,0-3.3,0-5.5-0.2l-7.4-2.3h7.6
				c0.9,0,1.8-0.3,2.4-1c0.2-0.3,0.3-0.6,0.3-1c0.2-0.8,0.2-1.7,0.1-2.5c0.1-1-0.1-2-0.4-3c-0.7-1.6-1.9-3-3.4-3.8l-15.5,1.7
				c-0.8,0.3-1.4,1-1.8,1.7c-0.3,0.8,0,1.3-0.2,2.7c-0.1,0.6-0.2,1.1-0.3,1.6c-1.4,0-2.8-0.1-4.2-0.3c-2-0.4-3.9-1-5.7-1.8
				c-0.8-0.1-1.6-0.6-2.1-1.4c-0.9-1.6,0.2-4.4,3.1-6.4l10.1-9.5c6.9-7.3,15.9-9,20.8-5.5c0.8,0.6,3.3,2.6,4.2,7.4
				c0.4,1.8,0.8,3.7,1.2,5.6c0.9,4.7,1.4,9.4,1.7,14.1C796.3,203.7,796.2,204.7,795.7,205.7z M808.7,201.6c-2.1,0.2-4.2-0.6-5.7-2.2
				c-1.1-1.2-1.6-2.8-1.6-4.4c-0.8-5.8-1.5-11.5-2.3-17.2c-0.3-0.4-0.3-1-0.1-1.5c0.2-0.4,0.7-0.7,1.2-0.8l80.9-1.8
				c1.3-0.1,2.5,0.1,3.7,0.4c1,0.3,2,0.7,2.9,1.2l33.3,25.5L808.7,201.6z M868.1,228.2l7-3.3l21.7,0.1c0.4,0.2,0.6,0.5,0.7,0.9
				c0.2,0.8-0.5,1.9-1.9,2.4L868.1,228.2z M938.1,243.1c-2.8,1.6-5.8,2.8-9,3.6c-4.8,1.3-9.8,2-14.8,2.1c-5.3,0.1-9.8-0.1-13.1-0.4
				c-11-0.8-14.6-2.4-17.2-3.9c-1.6-1-3-2.1-4.4-3.4l61.1,0.1C940,242,939.1,242.6,938.1,243.1L938.1,243.1z M904.2,229.5
				c0.3,0.3,3.4,3.2,7.4,2.3c1.4-0.3,2.6-1.1,3.6-2.1c0.5-1,1.5-1.7,2.7-1.6c1.1,0.3,2.2,2.2,1.4,4.4c-2.1,5.3-8.1,8-13.4,5.9
				c-2.6-1-4.7-3.1-5.8-5.7c-0.5-0.9-0.5-2,0-2.9C901.1,228.6,902.9,228.5,904.2,229.5L904.2,229.5z M901.7,223.5
				c4.6-3.6,11.2-3.2,15.4,0.8c-0.7,1.2-1.7,2.3-2.9,3.1c-0.9,0.6-3.4,2.3-5.6,1.6c-1.7-0.5-1.6-1.8-3.6-2.4c-1.5-0.4-2.4,0.1-3-0.6
				C901.5,225.3,901.4,224.4,901.7,223.5L901.7,223.5z M944.1,228.3l-21.3-0.1c-0.8,0.4-1.7,0.1-2.2-0.5c-0.4-0.6-0.3-1.3,0.1-1.9
				c0.4-0.5,1-0.7,1.6-0.6l21.2,0.1c0.8,0.2,1.4,0.9,1.4,1.7C945,227.5,944.6,228.1,944.1,228.3L944.1,228.3z M945,219.2l-82.5-0.1
				v-0.9l82.6,0.5L945,219.2z M944.1,215.7h-88.6l-29.8-8.2l120.4,6.3L944.1,215.7z M814.3,258.6c-0.8,9.1-2.4,19.7-5.9,20.2
				c-0.6,0.1-1.3-0.1-2.6-1.2c-6-5.2-6.6-14.5-6.7-17.7c-0.3-2.4-2.6-22.7,4.5-26c0.7-0.4,1.5-0.5,2.3-0.4
				c6.3,0.8,8.4,17.7,8.5,18.8V258.6z M845.9,261.8c-2.2,2.3-2.7,4-5.3,5.3c-2.1,0.9-4.3,1.3-6.6,1.2c-2.1,0.1-4.2,0-6.3-0.2
				c0.2-1.8,0.7-3.5,1.6-5.1c1.1-2.1,2.8-3.9,4.9-5.1c0.8-0.5,1.7-0.9,2.6-1.2c1.3-0.4,2.7-0.5,4.1-0.4c2.5,0.2,7.3,0.2,14.1,0.1
				C851.4,257.5,848.3,259.3,845.9,261.8z M807.2,301.7c-0.5,1.4-8.8,22-30.6,26.6c-16.5,3.2-33.2-3.6-42.8-17.4
				c-2.5-3.4-6-8.2-10.1-14c-13.3-18.6-24.6-34.8-33.4-47.7c-6.2-9-13.7-20-22-32.6c1.8-1.9,3.7-3.8,5.8-6
				c8.4-8.6,19.9-19.5,34.2-31.7c2.6,10.5,6.1,20.8,10.4,30.8c8,17.6,18.3,34,30.5,49c4.7,5.7,9.9,11.1,15.3,16.1
				c3,2.7,6.5,5.6,10.4,8.5c9.6,7.2,20.1,13.2,31.2,17.8L807.2,301.7L807.2,301.7z M892.1,270.8c-8.9-0.2-17.9-0.9-26.8-2.1h65.9
				C918.3,270.4,905.2,271.1,892.1,270.8z M949.2,264.3h-80.5v-0.5h80.5L949.2,264.3z"/>
		</g>
	</g>
	<g>
		<path class="st1" d="M631.2,290c-0.1-20.1-0.2-40.2-0.3-60.3v0v-60.9c0.2-3.2,1.6-29.4-18-45.3c-6.2-5-13.5-8.3-21.3-9.7
			c-8.3-1.2-16.8,0-24.4,3.4c-2.2,1-4.3,2.2-6.3,3.6c-1.3,1.5-1.4,2.1-1.2,2.5c0.8,1.4,7.4-2.5,15.7-2.7c4.2,0.1,8.4,0.9,12.2,2.5
			c10.4,4.3,17.5,20.8,17,40.8v127.1c-0.2,0.8-1.6,7.9,2.6,11.7c2.1,1.9,5,1.9,10.7,2c5.2,0.1,11.1,0.1,13-3.2
			c0.5-1.3,0.8-2.6,0.7-4C631.8,295,631.7,292.4,631.2,290C631.2,290,631.2,290,631.2,290z"/>
		<path class="st1" d="M632.5,282.3c0-0.1,0.1-0.3,0.1-0.4C632.6,282,632.5,282.1,632.5,282.3z"/>
		<path class="st1" d="M631.7,286.5c0.1-0.9,0.3-1.8,0.5-2.7C632,284.7,631.9,285.6,631.7,286.5z"/>
		<path class="st1" d="M814.1,304.1c-2.7-1-5.4-2-8.1-3c0,0,0,0,0,0c0,0,0,0,0,0l1.3,0.5l-0.1,0c-0.5,1.4-8.8,22-30.6,26.6
			c-16.5,3.2-33.2-3.6-42.8-17.4c-2.5-3.4-6-8.2-10.1-14c-13.3-18.6-24.6-34.8-33.4-47.7c-6.1-8.8-13.4-19.6-21.6-32
			c-7.1,7.6-13.5,15.3-19.2,23.8c0.2,0,0.3,0,0.5,0c1.3,0.1,2.5,0.9,3,2.1c10.1,13.9,18.2,25.3,23.7,33c11.5,16.2,17.1,24.5,27,36
			c6,7,11.2,12.4,14.9,16.1s18,16.3,38.5,16.1c23-0.3,44.5-16.7,53.5-41.3l-0.2-0.1C811.6,303.3,812.9,303.7,814.1,304.1z"/>
		<path class="st1" d="M631.2,290c0.1-1,0.3-2.1,0.5-3.1C631.5,288,631.3,289,631.2,290z"/>
	</g>
</g>
<g>
	<path class="st2" d="M176.1,154.9c-0.7-3.8-2.5-5.6-5.4-5.6c-1.6,0-3.2,0.4-4.8,1.1c-1.6,0.7-3.6,2.1-6.1,4.1
		c-3.5,2.7-6.3,4.4-8.6,4.9c-2.2,0.5-4.4,0.3-6.6-0.8c-2.7-1.4-4.2-4.1-4.4-8c-0.2-3.9,1.3-8.9,4.4-14.9c4.6-9,10.9-16.8,18.7-23.5
		c7.9-6.7,17.1-12,27.7-15.7c10.6-3.8,22.3-5.6,35.2-5.6c10.5,0,18.8,1.6,24.9,4.7c6.1,3.1,10.3,7.5,12.7,13.3
		c2.4,5.8,3.3,12.7,2.7,20.9c-0.6,8.2-2.2,17.4-5,27.6l-29.5,107.9l-12.3,7.6c2.9-13,7.6-24.5,14.2-34.6c6.6-10,14.7-18.4,24.3-25.1
		c9.6-6.7,20.4-11.8,32.5-15.3c12.1-3.5,25-5.2,38.9-5.2c18.9,0,33.1,4.4,42.5,13.1c9.4,8.7,12.9,21.3,10.6,37.6
		c-2,14.9-9.7,27.9-23.2,39.1c-13.4,11.2-33,20.7-58.8,28.5c-25.8,7.8-58.4,14.2-97.8,19.3l-0.9-24c21.5-2.5,39-5.8,52.3-10.2
		c13.4-4.3,23.4-9.7,30.1-16c6.7-6.4,10.9-13.8,12.5-22.3c1.4-6.9,0.6-12.4-2.4-16.5c-3-4-7.6-6.1-13.6-6.1c-6.1,0-12,1.6-17.7,4.7
		c-5.7,3.1-11.2,7.6-16.4,13.4c-5.2,5.8-9.9,13-14.1,21.6c-4.2,8.5-7.8,18.2-10.8,29c-2.7,10.4-4.8,18.6-6.3,24.6
		c-1.4,6-2.4,10.6-2.8,13.8c-0.4,3.2-0.7,5.8-0.7,7.8c0,4.8,0.8,9.1,2.4,13.1c1.6,4,2.4,8.6,2.4,13.8c0,6.5-2.8,12.2-8.3,17.1
		c-5.6,4.9-13.6,8.7-24.2,11.4c-10.5,2.7-23.3,4-38.3,4c-10.3,0-17.7-2.2-22.4-6.5c-4.7-4.3-7.1-10.6-7.1-18.8
		c-0.1-8.2,1.6-18.1,4.9-29.7l51.3-178.7C175.7,165.5,176.8,158.6,176.1,154.9z M308,300l8,28.8c2,7.2,4.7,12.2,8.1,15.1
		c3.4,2.8,7.1,4.2,11.2,4.2c2.5,0,4.9-0.6,7.3-1.7c2.4-1.2,4.6-2.5,6.6-4.1c3-2.5,5.7-4,8-4.7c2.3-0.6,4.4-0.7,6.3-0.1
		c2.6,0.7,4.5,2.3,5.7,4.8c1.2,2.5,1.3,6.2,0.1,11.3c-2.3,10.8-7.2,20.4-14.5,28.8c-7.4,8.4-16.4,14.9-27,19.7
		c-10.6,4.8-22.2,7.1-34.8,7.1c-13.6,0-23.8-3.6-30.8-10.7c-6.9-7.1-12-17.6-15.2-31.3l-11.7-50.7L308,300z"/>
</g>
<rect x="-10" y="567.7" class="st3" width="223" height="69"/>
<rect x="186.7" y="567.7" class="st2" width="204.6" height="69"/>
<rect x="383.4" y="567.7" class="st0" width="103.6" height="69"/>
<rect x="502" y="561.2" class="st4" width="172" height="82"/>
</svg>
