<?xml version="1.0" encoding="utf-8"?>
<!-- Generator: Adobe Illustrator 28.2.0, SVG Export Plug-In . SVG Version: 6.00 Build 0)  -->
<svg version="1.1" id="Layer_1" xmlns="http://www.w3.org/2000/svg" xmlns:xlink="http://www.w3.org/1999/xlink" x="0px" y="0px"
	 viewBox="0 0 500 500" style="enable-background:new 0 0 500 500;" xml:space="preserve">
<style type="text/css">
	.st0{fill:#191919;}
	.st1{fill:#3CABB5;}
</style>
<g id="Layer_2_00000008117125857205441560000001890028695840826242_">
	<g id="Layer_1-2">
		<path class="st0" d="M840.4,209.6c0.4-3.6,0.6-7.1,0.6-10.7c0-3.3-0.2-6.7-0.5-10c0.1-8.8-5.1-16.8-13.2-20.2
			c-1.5-0.6-3-1-4.5-1.2c-2.2-0.4-3.3-0.2-4.5-1c-1.1-0.7-1.9-1.8-2.2-3c-2.6-31-22.8-57.6-51.5-68c-28.1-10.2-58.5-2.6-78.3,15
			c-10.2,9.2-17.9,20.8-22.2,33.9c1.3-3.1,16.2-36.1,53.1-43.7c3.7-0.8,35.3-6.8,61.6,15.2c17.8,14.8,22.9,33.9,24.4,40.5l-1.8-0.7
			h-3.8l-15.9-13.3c-4.7-4.2-10.8-6.5-17.1-6.3l-67-0.8c-7.3,0.7-14.2,3.5-19.8,8.1l-15.9,16.1c-1.4,0.4-2.7,1.1-3.9,1.9
			c-0.5,0.3-0.9,0.7-1.4,1.1c-2,4-2.6,8.5-1.8,12.9l10.8,20.8c0.5,0.9,1.2,1.8,2,2.6c1.1,1,2.4,1.9,3.8,2.5c4.2,2.3,8.5,4.3,12.9,6
			c1.4,0.5,2.7,1,4,1.5c2.2,0.5,4.5,0.8,6.7,0.7c1.4,0,2.9-0.2,4.3-0.4c-1.3-1-2.7-1.8-4.1-2.6c-2.5-1.4-5.1-2.4-7.8-3.2
			c-5.7-1.8-11.3-3.8-16.7-6.3c-1.2-0.3-2.1-1.1-2.2-1.8c0-1,1.3-2.3,3.5-2.2c8.5,0.1,17,1.3,25.1,3.7c-8.6-4.6-18.3-6.5-28-5.5
			c-0.9-0.1-1.7-0.6-2.3-1.3c-0.7-0.9-0.9-2.1-0.6-3.1c-0.4-6.7-0.7-13.5-1.1-20.3c-0.3-0.7-0.1-1.5,0.4-2c0.7-0.7,1.8-0.7,2.6-0.1
			l29.3,9.8c1.3,0.2,2.7,0.2,4,0c1.5-0.3,2.9-0.8,4.2-1.6c4.5-3.8,11.2-3.2,15,1.3c0.7,0.8,1.2,1.7,1.6,2.6c-0.7,0-2.7,0-3.5,1.2
			c-1.2,1.9,1.6,5.4,1.9,5.8c3.6,4.4,9.6,5,15.6,5.6c6.3,0.6,13-0.1,15.5-0.9c0.5-0.2,1-0.3,1.5-0.3c1.8-0.1,3.6,0.3,5.2,1.3l4,3.8
			c1.3,2.8,3.6,5,6.4,6.3c1.5,0.7,3.1,1,4.8,1c8.9,2,18,2.8,27.1,2.4c3.8-0.2,7.6-0.9,11.2-2.2c0.4-0.1,9.4-3.3,11-7.4
			c0.1-0.2,0.6-1.6,1.4-3.8c0.4-0.9,0.6-1.7,0.8-2.2c0.9-0.2,1.7,0.4,1.9,1.2c0,0.5-0.2,1-0.6,1.3c-0.5,0.9-1.1,1.8-1.6,2.7
			c-2.2,3.5-4.7,6.8-7.3,9.9c-1,0.7-2.1,1.3-3.3,1.7c-1.4,0.5-2.8,0.8-4.3,0.9c-2.9,0.2-11.5,0.5-23.1,0.8c-6-0.2-11.8-1.5-17.3-3.8
			c-4-1.7-7.7-4-11-6.8c-1.3-0.7-2.7-1.3-4.2-1.7c-1.1-0.3-2.3-0.5-3.5-0.6c-2.2-0.2-5.9-0.7-12.5-1.8c-12.5-2.1-16.8-4.2-18.3-5.7
			c-1.3-1.3-2.7-2.6-4.2-3.7c-1.1-0.9-2-1.5-2.5-1.9c-1.8-2.2-4.8-3-7.5-2c-1.9,0.9-3.3,2.6-3.8,4.7c-2.5,8.8-3.3,18.1-2.2,27.2
			c0.1,1-0.5,1.9-1.4,2.3c-0.3,0.1-0.5,0-0.8-0.1c-2.2-0.3-4.5-0.6-6.9-1c-5.6-0.9-10.9-1.9-15.8-3.1c-0.4,0.1-0.8,0.3-1,0.7
			c-0.4,0.7-0.2,1.6,0.4,2.1c1.9,2,4.4,3.3,7.2,3.6c2.9,0.4,9.1,1.6,17.9,3.6c0.5,0.2,1,0.2,1.5,0.1c0.9-0.2,1.6-0.8,2-1.7
			c0.7,8.7,4.7,14.1,7.9,14c3.4-0.1,5.7-6.4,6-7c0.7-2.2,1.4-4.3,2.1-6.5c0.1,0.6,0.2,1.2,0.4,1.8c-0.1,0.4,0,0.9,0.2,1.3
			c0.6,1.4,2.8,2.2,5.4,1.9l60.1,0.3c-8.7,9.2-19.6,16-31.6,19.7c-24.6,7.4-45.4-1-51.2-3.6c-5.4-3.3-10.5-7-15.2-11.1
			c-13.1-11.3-20.2-22.6-24.7-29.9c-16-25.9-22.5-54.1-25-67.1c-2.3-0.6-4.8-0.4-7,0.6c-1.2,0.6-2.2,1.5-3,2.5
			c-2.6,3.2-24.5,24.5-56.3,55.1c-0.3-0.3-0.6-0.6-0.9-0.9c-0.6-0.7-1.1-1.4-1.6-2.1v-49.1c0.1-2.6,1.2-23.7-14.5-36.5
			c-5-4-10.9-6.7-17.2-7.8c-6.7-0.9-13.5,0-19.7,2.7c-1.8,0.8-3.5,1.8-5.1,2.9c-1.1,1.2-1.1,1.7-1,2c0.6,1.1,6-2,12.7-2.2
			c3.4,0,6.7,0.7,9.9,2c8.4,3.5,14.1,16.8,13.7,32.9V234c-0.1,0.6-1.3,6.4,2.1,9.5c1.7,1.6,4,1.6,8.6,1.6c4.2,0.1,8.9,0.1,10.5-2.6
			c0.4-1,0.6-2.1,0.6-3.2c0.2-2,0-4-0.3-6c1-7.3,2.8-14.4,5.3-21.4c2.3-6.3,5.3-12.3,8.8-18c0.3-0.1,0.7-0.2,1-0.2
			c1.1,0.1,2,0.7,2.4,1.7c8.2,11.2,14.7,20.4,19.1,26.6c9.3,13.1,13.8,19.8,21.8,29c4.8,5.6,9,10,12,13s14.5,13.1,31,12.9
			c18.5-0.2,35.8-13.4,43.1-33.3l-0.2-0.1c12.4,4.6,25.8,5.8,38.8,3.7c25-4.2,40-19.8,44.4-24.7c1.3-1.4,3.2-1.9,5-1.2
			c1.5,0.6,2.6,1.9,3,3.5c4.9,6.4,12.9,9.1,20,6.9c8.1-2.5,11.1-10.4,11.4-11.3l6-3.9c0.2-0.6,0.3-1.2,0.4-1.9
			C842,212.8,841.4,211,840.4,209.6z M701.1,165.3c-0.4,0.5-1,0.7-3.7,0.7c-1.1,0-2.6,0-4.4-0.2l-6-1.9h6.1c0.7,0,1.4-0.3,1.9-0.8
			c0.1-0.2,0.2-0.5,0.3-0.8c0.1-0.7,0.2-1.3,0.1-2c0.1-0.8-0.1-1.6-0.3-2.4c-0.5-1.3-1.5-2.4-2.8-3.1l-12.5,1.4
			c-0.6,0.3-1.1,0.8-1.4,1.4c-0.2,0.6,0,1.1-0.1,2.2c-0.1,0.4-0.1,0.9-0.3,1.3c-1.1,0-2.3-0.1-3.4-0.3c-1.6-0.3-3.1-0.8-4.6-1.5
			c-0.7-0.1-1.3-0.5-1.7-1.1c-0.7-1.2,0.1-3.5,2.5-5.1l8.1-7.7c5.5-5.9,12.8-7.2,16.8-4.4c0.7,0.5,2.6,2.1,3.4,5.9
			c0.3,1.4,0.7,3,0.9,4.5c0.7,3.7,1.1,7.5,1.4,11.3C701.6,163.7,701.6,164.6,701.1,165.3z M711.6,162.1c-1.7,0.1-3.4-0.5-4.6-1.8
			c-0.9-1-1.3-2.2-1.3-3.6c-0.6-4.6-1.2-9.3-1.9-13.9c-0.2-0.4-0.3-0.8-0.1-1.2c0.2-0.4,0.5-0.6,1-0.6l65.1-1.5c1-0.1,2,0,3,0.3
			c0.8,0.2,1.6,0.6,2.3,1l26.8,20.5L711.6,162.1z M759.5,183.5l5.6-2.7l17.5,0.1c0.3,0.1,0.5,0.4,0.6,0.7c0.2,0.6-0.4,1.5-1.6,1.9
			L759.5,183.5z M815.9,195.5c-2.3,1.3-4.7,2.3-7.2,2.9c-3.9,1-7.9,1.6-11.9,1.7c-4.3,0.1-7.9-0.1-10.6-0.3
			c-8.8-0.7-11.8-1.9-13.8-3.1c-1.3-0.8-2.5-1.7-3.5-2.7l49.2,0.1C817.4,194.6,816.7,195.1,815.9,195.5L815.9,195.5z M788.5,184.5
			c0.2,0.2,2.7,2.6,5.9,1.9c1.1-0.3,2.1-0.8,2.9-1.7c0.4-0.8,1.2-1.3,2.1-1.3c0.9,0.2,1.7,1.8,1.1,3.6c-1.7,4.3-6.5,6.4-10.8,4.7
			c-2.1-0.8-3.8-2.5-4.7-4.6c-0.4-0.7-0.4-1.6,0-2.3C786,183.8,787.5,183.7,788.5,184.5L788.5,184.5z M786.5,179.7
			c3.7-2.9,9-2.6,12.4,0.7c-0.6,1-1.4,1.9-2.4,2.5c-0.8,0.5-2.7,1.8-4.5,1.2c-1.4-0.4-1.3-1.5-2.9-1.9c-1.2-0.3-1.9,0.1-2.4-0.5
			C786.4,181.2,786.3,180.4,786.5,179.7L786.5,179.7z M820.7,183.6l-17.1-0.1c-0.6,0.3-1.3,0.1-1.7-0.4c-0.3-0.5-0.3-1.1,0.1-1.5
			c0.3-0.4,0.8-0.6,1.3-0.5l17.1,0.1c0.6,0.2,1.1,0.7,1.1,1.4C821.4,182.9,821.1,183.4,820.7,183.6L820.7,183.6z M821.4,176.3
			l-66.4-0.1v-0.8l66.5,0.4L821.4,176.3z M820.7,173.4h-71.4l-24-6.6l97,5.1L820.7,173.4z M716.2,208c-0.6,7.3-1.9,15.9-4.8,16.3
			c-0.5,0.1-1-0.1-2.1-1c-4.8-4.2-5.4-11.7-5.4-14.2c-0.2-1.9-2.1-18.3,3.6-20.9c0.6-0.3,1.2-0.4,1.9-0.3c5.1,0.6,6.8,14.2,6.8,15.2
			V208z M741.6,210.5c-1.8,1.8-2.2,3.2-4.3,4.2c-1.7,0.7-3.5,1-5.3,1c-1.7,0.1-3.4,0-5.1-0.2c0.1-1.4,0.6-2.8,1.2-4.1
			c0.9-1.7,2.3-3.1,3.9-4.1c0.6-0.4,1.3-0.7,2.1-0.9c1.1-0.3,2.2-0.4,3.3-0.3c2,0.1,5.9,0.2,11.3,0.1
			C746,207.1,743.6,208.5,741.6,210.5z M710.4,242.7c-0.4,1.1-7.1,17.8-24.7,21.4c-13.3,2.6-26.8-2.9-34.5-14
			c-2-2.8-4.8-6.6-8.1-11.2c-10.7-15-19.8-28-26.9-38.4c-5-7.2-11-16.1-17.7-26.3c1.4-1.5,2.9-3.1,4.7-4.8
			c6.8-6.9,16-15.7,27.5-25.5c2.1,8.5,4.9,16.8,8.3,24.8c6.5,14.1,14.7,27.4,24.5,39.5c3.8,4.6,7.9,8.9,12.4,13
			c2.4,2.2,5.2,4.5,8.3,6.9c7.8,5.8,16.2,10.6,25.2,14.3L710.4,242.7L710.4,242.7z M778.8,217.8c-7.2-0.2-14.4-0.7-21.6-1.7h53.1
			C799.9,217.5,789.3,218.1,778.8,217.8z M824.8,212.6H760v-0.4h64.8L824.8,212.6z"/>
	</g>
</g>
<g>
	<g id="Layer_2_00000087412497656660725790000008276709675542585507_">
		<g id="Layer_1-2_00000177468750663845862590000013485630403178908334_">
			<path class="st0" d="M446.8,280.8c0.5-4.3,0.7-8.5,0.7-12.8c0-4-0.2-8-0.6-12c0.2-10.6-6.1-20.2-15.9-24.2
				c-1.7-0.7-3.5-1.2-5.4-1.5c-2.6-0.5-3.9-0.3-5.4-1.2c-1.3-0.9-2.2-2.1-2.7-3.6c-3.1-37.2-27.3-69.2-61.8-81.7
				c-33.8-12.2-70.2-3.1-94.1,18c-12.3,11-21.5,25-26.6,40.7c1.6-3.7,19.5-43.4,63.8-52.5c4.4-0.9,42.4-8.1,74,18.3
				c21.3,17.8,27.5,40.7,29.3,48.6l-2.1-0.9h-4.6l-19.1-16c-5.6-5.1-12.9-7.8-20.5-7.6l-80.5-1c-8.7,0.8-17,4.2-23.8,9.8l-19.1,19.3
				c-1.7,0.5-3.3,1.3-4.7,2.3c-0.6,0.4-1.1,0.8-1.7,1.3c-2.4,4.8-3.2,10.2-2.1,15.5l12.9,24.9c0.7,1.1,1.5,2.2,2.4,3.1
				c1.3,1.3,2.9,2.3,4.6,3c5,2.7,10.2,5.1,15.5,7.2c1.6,0.6,3.2,1.2,4.8,1.8c2.6,0.6,5.4,0.9,8.1,0.9c1.7,0,3.5-0.2,5.2-0.5
				c-1.6-1.2-3.2-2.2-4.9-3.1c-3-1.6-6.1-2.9-9.4-3.8c-6.8-2.1-13.5-4.6-20.1-7.5c-1.5-0.4-2.6-1.3-2.6-2.2c0-1.2,1.6-2.7,4.2-2.6
				c10.2,0.1,20.4,1.6,30.2,4.5c-10.3-5.6-22-7.9-33.6-6.6c-1.1-0.2-2.1-0.7-2.8-1.6c-0.8-1.1-1-2.5-0.7-3.8
				c-0.4-8.1-0.9-16.2-1.3-24.3c-0.3-0.8-0.1-1.8,0.5-2.4c0.9-0.8,2.2-0.8,3.1-0.1l35.2,11.8c1.6,0.3,3.2,0.3,4.8,0
				c1.8-0.3,3.5-1,5.1-2c5.4-4.5,13.5-3.8,18,1.6c0.8,0.9,1.4,2,1.9,3.1c-0.9,0-3.2,0-4.2,1.4c-1.5,2.3,1.9,6.5,2.3,7
				c4.3,5.3,11.5,6,18.8,6.7c7.6,0.7,15.6-0.1,18.6-1.1c0.6-0.2,1.2-0.3,1.8-0.4c2.2-0.2,4.3,0.4,6.2,1.5l4.8,4.6
				c1.6,3.4,4.3,6.1,7.7,7.6c1.8,0.8,3.8,1.2,5.8,1.2c10.7,2.4,21.6,3.3,32.5,2.8c4.6-0.2,9.1-1.1,13.4-2.6c0.5-0.2,11.3-4,13.2-8.9
				c0.1-0.3,0.7-1.9,1.7-4.5c0.4-1.1,0.8-2,1-2.6c1-0.2,2,0.4,2.3,1.5c0,0.6-0.2,1.2-0.7,1.6c-0.6,1.1-1.3,2.1-2,3.2
				c-2.6,4.2-5.6,8.1-8.8,11.9c-1.2,0.9-2.5,1.5-3.9,2.1c-1.7,0.6-3.4,1-5.2,1c-3.5,0.2-13.8,0.6-27.7,1c-7.2-0.2-14.2-1.8-20.8-4.6
				c-4.8-2.1-9.2-4.8-13.2-8.1c-1.6-0.9-3.2-1.6-5-2.1c-1.4-0.4-2.8-0.6-4.2-0.7c-2.7-0.2-7.1-0.8-15-2.2c-14.9-2.6-20.2-5-22-6.8
				c-1.6-1.6-3.3-3.1-5-4.5c-1.3-1-2.4-1.8-3-2.3c-2.2-2.6-5.8-3.6-9-2.4c-2.3,1.1-4,3.2-4.6,5.7c-3,10.6-3.9,21.7-2.7,32.7
				c0.1,1.2-0.6,2.3-1.7,2.8c-0.3,0.1-0.6,0-0.9-0.1c-2.7-0.3-5.4-0.7-8.2-1.2c-6.7-1-13-2.3-19-3.7c-0.5,0.1-0.9,0.4-1.2,0.8
				c-0.5,0.9-0.3,1.9,0.5,2.6c2.3,2.4,5.3,3.9,8.6,4.3c3.5,0.4,10.9,2,21.5,4.3c0.6,0.2,1.2,0.3,1.8,0.2c1.1-0.3,2-1,2.4-2
				c0.9,10.5,5.6,16.9,9.5,16.8c4-0.2,6.9-7.6,7.1-8.4c0.8-2.6,1.7-5.2,2.5-7.8c0.2,0.7,0.3,1.4,0.4,2.1c-0.1,0.5,0,1.1,0.2,1.5
				c0.7,1.7,3.3,2.7,6.4,2.3l72.2,0.3c-10.4,11.1-23.5,19.2-38,23.6c-29.6,8.9-54.5-1.2-61.5-4.3c-6.4-3.9-12.6-8.4-18.3-13.3
				c-15.7-13.5-24.2-27.2-29.6-35.9c-19.2-31.1-27-64.9-30-80.6c-2.8-0.7-5.8-0.5-8.4,0.7c-1.4,0.7-2.6,1.7-3.6,3
				c-3.1,3.9-29.4,29.4-67.6,66.1c-0.3-0.3-0.7-0.7-1-1.1c-0.7-0.8-1.4-1.6-1.9-2.5V192c0.2-3.1,1.5-28.5-17.4-43.8
				c-6-4.8-13.1-8-20.6-9.4c-8-1.1-16.2,0-23.6,3.3c-2.1,1-4.2,2.2-6.1,3.5c-1.3,1.4-1.4,2-1.2,2.4c0.8,1.3,7.2-2.4,15.2-2.6
				c4.1,0.1,8.1,0.9,11.8,2.4c10.1,4.2,16.9,20.1,16.5,39.5v123c-0.2,0.7-1.6,7.7,2.5,11.4c2.1,1.9,4.8,1.9,10.3,1.9
				c5,0.1,10.7,0.1,12.6-3.1c0.5-1.2,0.7-2.6,0.7-3.9c0.2-2.4,0.1-4.8-0.4-7.2c1.2-8.8,3.3-17.3,6.4-25.6
				c2.8-7.5,6.3-14.8,10.6-21.6c0.4-0.1,0.8-0.2,1.2-0.2c1.3,0.1,2.4,0.9,2.9,2c9.8,13.5,17.6,24.5,22.9,32
				c11.1,15.7,16.6,23.7,26.1,34.8c5.8,6.7,10.8,12,14.4,15.6s17.4,15.8,37.2,15.5c22.2-0.3,43-16.1,51.7-40l-0.2-0.1
				c14.9,5.5,30.9,7,46.6,4.4c30-5.1,48-23.8,53.3-29.7c1.5-1.6,3.9-2.2,6-1.5c1.8,0.7,3.2,2.3,3.6,4.2c5.9,7.6,15.5,10.9,24,8.2
				c9.8-3,13.3-12.5,13.7-13.6l7.2-4.6c0.2-0.7,0.4-1.5,0.4-2.2C448.8,284.6,448.1,282.5,446.8,280.8z M279.7,227.6
				c-0.5,0.6-1.2,0.9-4.5,0.9c-1.3,0-3.2,0-5.3-0.2l-7.2-2.2h7.3c0.9,0,1.7-0.3,2.3-1c0.2-0.3,0.3-0.6,0.3-1
				c0.2-0.8,0.2-1.6,0.1-2.4c0.1-1-0.1-2-0.4-2.9c-0.6-1.6-1.8-2.9-3.3-3.7l-14.9,1.6c-0.8,0.3-1.4,0.9-1.7,1.7
				c-0.3,0.7,0,1.3-0.2,2.6c-0.1,0.5-0.2,1.1-0.3,1.6c-1.4,0-2.7-0.1-4.1-0.3c-1.9-0.3-3.7-0.9-5.5-1.8c-0.8-0.1-1.5-0.6-2-1.3
				c-0.8-1.5,0.2-4.2,3-6.2l9.8-9.2c6.6-7.1,15.4-8.7,20.1-5.3c0.8,0.6,3.2,2.5,4,7.1c0.4,1.7,0.8,3.6,1.1,5.4
				c0.8,4.5,1.4,9,1.6,13.6C280.3,225.7,280.2,226.8,279.7,227.6z M292.2,223.7c-2.1,0.2-4.1-0.6-5.5-2.1c-1-1.2-1.6-2.7-1.6-4.3
				c-0.7-5.6-1.5-11.1-2.2-16.7c-0.3-0.4-0.3-1-0.1-1.4c0.2-0.4,0.7-0.7,1.1-0.8l78.2-1.8c1.2-0.1,2.4,0.1,3.6,0.4
				c1,0.3,1.9,0.7,2.8,1.2l32.2,24.7L292.2,223.7z M349.7,249.5l6.7-3.2l21,0.1c0.3,0.2,0.6,0.5,0.7,0.8c0.2,0.8-0.5,1.8-1.9,2.3
				L349.7,249.5z M417.4,263.9c-2.7,1.6-5.6,2.7-8.7,3.5c-4.7,1.2-9.5,1.9-14.3,2c-5.2,0.1-9.5-0.1-12.7-0.3
				c-10.6-0.8-14.2-2.3-16.6-3.8c-1.5-0.9-2.9-2-4.2-3.3l59.1,0.1C419.2,262.8,418.4,263.4,417.4,263.9L417.4,263.9z M384.6,250.7
				c0.3,0.3,3.3,3.1,7.1,2.2c1.3-0.3,2.5-1,3.5-2c0.5-1,1.5-1.6,2.6-1.6c1.1,0.3,2.1,2.1,1.3,4.3c-2,5.1-7.8,7.7-12.9,5.7
				c-2.5-1-4.6-3-5.6-5.5c-0.5-0.9-0.5-1.9,0-2.8C381.6,249.9,383.4,249.7,384.6,250.7L384.6,250.7z M382.2,244.9
				c4.5-3.4,10.8-3.1,14.9,0.8c-0.7,1.2-1.7,2.2-2.8,3c-0.9,0.6-3.3,2.2-5.5,1.5c-1.6-0.5-1.5-1.8-3.4-2.3c-1.4-0.4-2.3,0.1-2.9-0.6
				C382,246.6,381.9,245.8,382.2,244.9L382.2,244.9z M423.3,249.5l-20.6-0.1c-0.7,0.4-1.6,0.1-2.1-0.5c-0.3-0.6-0.3-1.3,0.1-1.8
				c0.4-0.5,1-0.7,1.6-0.6l20.5,0.1c0.8,0.2,1.3,0.9,1.3,1.6C424.1,248.8,423.8,249.3,423.3,249.5L423.3,249.5z M424.1,240.8
				l-79.8-0.1v-0.9l79.9,0.5L424.1,240.8z M423.2,237.3h-85.7l-28.8-7.9l116.5,6.1L423.2,237.3z M297.7,278.9
				c-0.8,8.8-2.3,19.1-5.8,19.5c-0.6,0.1-1.3-0.1-2.5-1.2c-5.8-5-6.4-14-6.5-17.1c-0.3-2.3-2.6-22,4.3-25.1c0.7-0.3,1.5-0.5,2.2-0.4
				c6.1,0.8,8.1,17.1,8.2,18.2L297.7,278.9z M328.2,281.9c-2.1,2.2-2.6,3.8-5.2,5.1c-2,0.8-4.2,1.2-6.4,1.2c-2,0.1-4.1,0-6.1-0.2
				c0.2-1.7,0.7-3.4,1.5-4.9c1.1-2,2.7-3.7,4.7-4.9c0.8-0.5,1.6-0.9,2.5-1.1c1.3-0.4,2.6-0.5,4-0.4c2.4,0.2,7,0.2,13.6,0.1
				C333.6,277.8,330.6,279.5,328.2,281.9z M290.8,320.5c-0.5,1.4-8.5,21.3-29.6,25.7c-15.9,3.1-32.2-3.5-41.4-16.8
				c-2.4-3.3-5.8-7.9-9.8-13.5c-12.9-18-23.8-33.6-32.3-46.1c-6-8.7-13.2-19.3-21.3-31.5c1.7-1.8,3.5-3.7,5.6-5.8
				c8.2-8.3,19.2-18.9,33.1-30.6c2.5,10.2,5.9,20.1,10,29.8c7.8,17,17.7,32.9,29.5,47.4c4.6,5.5,9.5,10.7,14.8,15.6
				c2.9,2.7,6.3,5.4,10,8.2c9.3,7,19.5,12.7,30.2,17.2L290.8,320.5L290.8,320.5z M372.9,290.6c-8.7-0.2-17.3-0.9-25.9-2h63.7
				C398.2,290.3,385.6,290.9,372.9,290.6z M428.2,284.4h-77.8v-0.5h77.9L428.2,284.4z"/>
		</g>
	</g>
	<g>
		<path class="st1" d="M120.6,309.2c-0.1-19.4-0.2-38.9-0.3-58.3v0V192c0.2-3.1,1.5-28.5-17.4-43.8c-6-4.8-13.1-8-20.6-9.4
			c-8-1.1-16.2,0-23.6,3.3c-2.1,1-4.2,2.2-6.1,3.5c-1.3,1.4-1.4,2-1.2,2.4c0.8,1.3,7.2-2.4,15.2-2.6c4.1,0.1,8.1,0.9,11.8,2.4
			c10.1,4.2,16.9,20.1,16.5,39.5v123c-0.2,0.7-1.6,7.7,2.5,11.4c2.1,1.9,4.8,1.9,10.3,1.9c5,0.1,10.7,0.1,12.6-3.1
			c0.5-1.2,0.7-2.6,0.7-3.9C121.2,314,121,311.6,120.6,309.2C120.6,309.2,120.6,309.2,120.6,309.2z"/>
		<path class="st1" d="M121.9,301.7c0-0.1,0.1-0.3,0.1-0.4C121.9,301.5,121.9,301.6,121.9,301.7z"/>
		<path class="st1" d="M121.1,305.8c0.1-0.9,0.3-1.7,0.5-2.6C121.4,304.1,121.2,305,121.1,305.8z"/>
		<path class="st1" d="M297.5,322.9c-2.6-1-5.3-1.9-7.9-2.9c0,0,0,0,0,0c0,0,0,0,0,0l1.3,0.5l-0.1,0c-0.5,1.4-8.5,21.3-29.6,25.7
			c-15.9,3.1-32.2-3.5-41.4-16.8c-2.4-3.3-5.8-7.9-9.8-13.5c-12.9-18-23.8-33.6-32.3-46.1c-5.9-8.5-13-19-20.9-31
			c-6.8,7.4-13.1,14.8-18.5,23c0.2,0,0.3,0,0.5,0c1.3,0.1,2.4,0.9,2.9,2c9.8,13.5,17.6,24.5,22.9,32c11.1,15.7,16.6,23.7,26.1,34.8
			c5.8,6.7,10.8,12,14.4,15.6s17.4,15.8,37.2,15.5c22.2-0.3,43-16.1,51.7-40l-0.2-0.1C295.1,322.1,296.3,322.5,297.5,322.9z"/>
		<path class="st1" d="M120.6,309.2c0.1-1,0.3-2,0.5-3C120.9,307.2,120.7,308.3,120.6,309.2z"/>
	</g>
</g>
</svg>
